<svg width="185" height="30" viewBox="0 0 185 30" fill="none" xmlns="http://www.w3.org/2000/svg">
<rect x="143" y="0.5" width="41.5" height="29" rx="3.5" fill="white" stroke="#B2BCCA"/>
<path fill-rule="evenodd" clip-rule="evenodd" d="M163.974 21.0369C162.494 22.2844 160.574 23.0375 158.476 23.0375C153.795 23.0375 150 19.2879 150 14.6625C150 10.0371 153.795 6.28753 158.476 6.28753C160.574 6.28753 162.494 7.04065 163.974 8.2882C165.454 7.04065 167.374 6.28753 169.472 6.28753C174.153 6.28753 177.947 10.0371 177.947 14.6625C177.947 19.2879 174.153 23.0375 169.472 23.0375C167.374 23.0375 165.454 22.2844 163.974 21.0369Z" fill="#ED0006"/>
<path fill-rule="evenodd" clip-rule="evenodd" d="M163.974 21.0369C165.796 19.5008 166.952 17.215 166.952 14.6625C166.952 12.1101 165.796 9.82428 163.974 8.28815C165.454 7.04063 167.374 6.28753 169.471 6.28753C174.153 6.28753 177.947 10.0371 177.947 14.6625C177.947 19.2879 174.153 23.0375 169.471 23.0375C167.374 23.0375 165.454 22.2844 163.974 21.0369Z" fill="#F9A000"/>
<path fill-rule="evenodd" clip-rule="evenodd" d="M163.974 21.0368C165.796 19.5007 166.952 17.2149 166.952 14.6625C166.952 12.1101 165.796 9.82434 163.974 8.28821C162.151 9.82434 160.996 12.1101 160.996 14.6625C160.996 17.2149 162.151 19.5007 163.974 21.0368Z" fill="#FD6020"/>
<rect x="48" y="0.5" width="41.5" height="29" rx="3.5" fill="white" stroke="#B2BCCA"/>
<path d="M70.5 29L89.5 23.25V26C89.5 27.6569 88.1569 29 86.5 29H70.5Z" fill="#FD6020"/>
<path fill-rule="evenodd" clip-rule="evenodd" d="M84.2421 11.3886C85.5487 11.3886 86.2673 11.993 86.2673 13.1347C86.3327 14.0078 85.7447 14.7466 84.9607 14.8809L86.7246 17.3657H85.3527L83.8501 14.948H83.7194V17.3657H82.6088V11.3886H84.2421ZM83.7195 14.1421H84.0461C84.7647 14.1421 85.0914 13.8063 85.0914 13.2019C85.0914 12.6646 84.7647 12.3288 84.0461 12.3288H83.7195V14.1421ZM78.7544 17.3657H81.8903V16.3584H79.865V14.7466H81.8249V13.7392H79.865V12.396H81.8903V11.3886H78.7544V17.3657ZM75.4877 15.4181L73.9851 11.3886H72.8092L75.2264 17.5001H75.8144L78.2316 11.3886H77.0557L75.4877 15.4181ZM62.2255 14.4106C62.2255 16.0896 63.5321 17.4999 65.1654 17.4999C65.688 17.4999 66.1454 17.3656 66.6027 17.1641V15.821C66.276 16.2239 65.8187 16.4926 65.2961 16.4926C64.2508 16.4926 63.4015 15.6867 63.4015 14.6121V14.4778C63.3361 13.4033 64.1854 12.463 65.2307 12.3959C65.7534 12.3959 66.276 12.6645 66.6027 13.0675V11.7243C66.2107 11.4557 65.688 11.3885 65.2307 11.3885C63.5321 11.2542 62.2255 12.6645 62.2255 14.4106ZM60.2003 13.672C59.547 13.4033 59.351 13.269 59.351 12.9332C59.4163 12.5303 59.743 12.1945 60.135 12.2616C60.4616 12.2616 60.7883 12.4631 61.0496 12.7317L61.6376 11.9258C61.1803 11.5229 60.5923 11.2542 60.0043 11.2542C59.0897 11.1871 58.3057 11.9258 58.2404 12.8661V12.9332C58.2404 13.7391 58.567 14.2092 59.6123 14.545C59.8736 14.6122 60.135 14.7465 60.3963 14.8808C60.5923 15.0151 60.7229 15.2166 60.7229 15.4852C60.7229 15.9554 60.331 16.3583 59.939 16.3583H59.8736C59.351 16.3583 58.8937 16.0225 58.6977 15.5524L57.9791 16.2911C58.371 17.0299 59.155 17.4328 59.939 17.4328C60.9843 17.5 61.8336 16.6941 61.8989 15.6196V15.4181C61.8336 14.6122 61.5069 14.2092 60.2003 13.672ZM56.4111 17.3657H57.5217V11.3886H56.4111V17.3657ZM51.25 11.3886H52.8833H53.2099C54.7779 11.4558 56.0192 12.799 55.9538 14.4108C55.9538 15.2838 55.5618 16.0897 54.9085 16.6942C54.3206 17.1643 53.6019 17.4329 52.8833 17.3658H51.25V11.3886ZM52.6873 16.3584C53.21 16.4256 53.7979 16.2241 54.1899 15.8883C54.5819 15.4854 54.7779 14.9481 54.7779 14.3437C54.7779 13.8064 54.5819 13.2691 54.1899 12.8662C53.7979 12.5304 53.21 12.3289 52.6873 12.3961H52.3607V16.3584H52.6873Z" fill="black"/>
<path fill-rule="evenodd" clip-rule="evenodd" d="M69.9347 11.25C68.3014 11.25 66.9294 12.5932 66.9294 14.3393C66.9294 16.0183 68.2361 17.4286 69.9347 17.4958C71.6333 17.5629 72.9399 16.1526 73.0052 14.4065C72.9399 12.6603 71.6333 11.25 69.9347 11.25V11.25Z" fill="#FD6020"/>
<rect x="0.5" y="0.5" width="41.5" height="29" rx="3.5" fill="white" stroke="#B2BCCA"/>
<path fill-rule="evenodd" clip-rule="evenodd" d="M13.4378 19.8228H10.8631L8.93244 12.2404C8.84081 11.8916 8.64623 11.5833 8.36002 11.4379C7.64573 11.0727 6.85864 10.7821 6 10.6355V10.3436H10.1476C10.72 10.3436 11.1494 10.7821 11.2209 11.2914L12.2227 16.7607L14.7961 10.3436H17.2992L13.4378 19.8228ZM18.7303 19.8228H16.2988L18.301 10.3436H20.7326L18.7303 19.8228ZM23.8784 12.9696C23.95 12.4591 24.3793 12.1672 24.8802 12.1672C25.6672 12.0939 26.5246 12.2405 27.2402 12.6044L27.6695 10.5635C26.954 10.2716 26.1669 10.125 25.4526 10.125C23.0926 10.125 21.3753 11.438 21.3753 13.2603C21.3753 14.6466 22.5917 15.3745 23.4503 15.813C24.3793 16.2503 24.737 16.5422 24.6655 16.9794C24.6655 17.6353 23.95 17.9272 23.2357 17.9272C22.377 17.9272 21.5184 17.7086 20.7326 17.3434L20.3032 19.3856C21.1619 19.7495 22.0908 19.8961 22.9495 19.8961C25.5957 19.9681 27.2402 18.6564 27.2402 16.6875C27.2402 14.2081 23.8784 14.0627 23.8784 12.9696ZM35.7499 19.8228L33.8192 10.3436H31.7454C31.3161 10.3436 30.8868 10.6355 30.7437 11.0727L27.1685 19.8228H29.6716L30.1712 18.4377H33.2468L33.533 19.8228H35.7499ZM32.1033 12.8962L32.8176 16.4688H30.8154L32.1033 12.8962Z" fill="#28356A"/>
<rect x="95.5" y="0.5" width="41.5" height="29" rx="3.5" fill="white" stroke="#B2BCCA"/>
<path d="M119.072 14.6323C119.072 19.2616 115.362 23.0145 110.786 23.0145C106.21 23.0145 102.5 19.2616 102.5 14.6323C102.5 10.0029 106.21 6.25006 110.786 6.25006C115.362 6.25006 119.072 10.0029 119.072 14.6323Z" fill="#ED0006"/>
<path d="M129.822 14.6323C129.822 19.2616 126.112 23.0145 121.536 23.0145C116.959 23.0145 113.25 19.2616 113.25 14.6323C113.25 10.0029 116.959 6.25006 121.536 6.25006C126.112 6.25006 129.822 10.0029 129.822 14.6323Z" fill="#2F80ED"/>
<path fill-rule="evenodd" clip-rule="evenodd" d="M116.161 8.25242C117.942 9.78987 119.072 12.0776 119.072 14.6322C119.072 17.1868 117.942 19.4745 116.161 21.0119C114.379 19.4745 113.25 17.1868 113.25 14.6322C113.25 12.0776 114.379 9.78987 116.161 8.25242Z" fill="#6C6BBD"/>
</svg>
